<svg xmlns="http://www.w3.org/2000/svg" viewBox="0 0 200 200">
  <circle cx="100" cy="100" r="100" fill="#E60000"/>
  <path fill="white" d="M100,30 C62,30 32,60 32,98 C32,124 46,147 68,160 L100,175 L132,160 C154,147 168,124 168,98 C168,60 138,30 100,30Z"/>
  <path fill="#E60000" d="M100,48 C72,48 50,70 50,98 C50,118 61,135 78,144 L100,155 L122,144 C139,135 150,118 150,98 C150,70 128,48 100,48Z"/>
  <path fill="white" d="M76,70 C70,82 72,98 82,110 C92,122 108,126 120,118 C132,110 134,94 124,82 C120,77 114,74 108,73 C105,62 98,56 88,58 C82,60 78,64 76,70Z"/>
</svg>
